#!OML:ASF E:\motion texture\Top Level 1\Subject 1\Session 1\male.ASF
:FULLY-SPECIFIED
:DEGREES
161
root 10.3878 17.8238 3.99856 85.0865 -85.2621 -77.7824
lowerback -1.50163 -1.93765 1.98664
upperback -1.92151 -2.63528 3.18072
thorax -1.0684 -1.34749 2.13559
lowerneck -9.13671 -6.33442 -5.61475
upperneck 23.3149 -10.8938 9.36528
head 9.69388 -4.88875 2.893
rclavicle 2.6165e-014 3.97569e-016
rhumerus 43.9291 -38.7419 -17.0971
rradius 123.73
rwrist -46.3362
rhand -5.13347 -21.9816
rfingers 7.12502
rthumb 20.6652 -50.9015
lclavicle 2.6165e-014 3.97569e-016
lhumerus -36.254 16.9206 69.8846
lradius 23.1443
lwrist -28.8588
lhand -9.7762 16.8379
lfingers 7.12502
lthumb 16.1991 46.1811
rfemur -29.3558 2.19518 24.121
rtibia 21.9107
rfoot 0.651825 -8.54214
rtoes 14.186
lfemur 4.33663 -6.33586 -14.7701
ltibia 26.6545
lfoot -9.07879 -1.27516
ltoes -27.6228
162
root 10.2347 17.8417 3.96825 85.32 -85.0411 -78.0911
lowerback -1.47003 -1.91148 2.13828
upperback -1.91182 -2.60247 3.26493
thorax -1.07985 -1.33352 2.13877
lowerneck -9.13763 -6.38709 -5.68314
upperneck 23.2704 -10.9609 9.41142
head 9.69113 -4.9212 2.9115
rclavicle 1.61513e-015 1.15295e-014
rhumerus 43.9011 -38.7651 -17.0037
rradius 123.863
rwrist -45.9462
rhand -5.35394 -22.061
rfingers 7.12502
rthumb 20.4533 -51.0037
lclavicle 1.61513e-015 1.15295e-014
lhumerus -36.5218 16.9646 69.8935
lradius 23.3057
lwrist -28.6131
lhand -9.72098 16.8363
lfingers 7.12502
lthumb 16.2523 46.1751
rfemur -28.7147 2.29549 24.5247
rtibia 21.9495
rfoot 0.404146 -8.21541
rtoes 15.3421
lfemur 3.81432 -6.29941 -14.3421
ltibia 28.2064
lfoot -7.68126 -1.66929
ltoes -28.0936
163
root 10.0825 17.8599 3.93801 85.2343 -84.7971 -78.0909
lowerback -1.43875 -1.89641 2.31686
upperback -1.89177 -2.58497 3.348
thorax -1.08135 -1.32751 2.12538
lowerneck -9.16237 -6.44009 -5.76435
upperneck 23.2097 -11.0309 9.49107
head 9.69046 -4.95189 2.94253
rclavicle -1.38528e-014 4.05521e-014
rhumerus 43.6895 -38.6337 -16.6616
rradius 123.937
rwrist -45.6673
rhand -5.54806 -22.1885
rfingers 7.12502
rthumb 20.2668 -51.1512
lclavicle -1.38528e-014 4.05521e-014
lhumerus -36.76 17.0097 69.9043
lradius 23.4668
lwrist -28.3994
lhand -9.68785 16.8226
lfingers 7.12502
lthumb 16.2842 46.1588
rfemur -28.0272 2.37679 24.9546
rtibia 21.9211
rfoot 0.177599 -7.9081
rtoes 16.4996
lfemur 3.19519 -6.20506 -13.8598
ltibia 29.8484
lfoot -6.05808 -2.08554
ltoes -28.2622
164
root 9.93124 17.8782 3.90801 84.8886 -84.5179 -77.8279
lowerback -1.42621 -1.88784 2.53403
upperback -1.87081 -2.57756 3.43139
thorax -1.07291 -1.32708 2.09005
lowerneck -9.174 -6.49492 -5.84357
upperneck 23.1253 -11.1049 9.58616
head 9.68027 -4.98367 2.97837
rclavicle 6.92019e-015 3.06128e-014
rhumerus 43.2785 -38.3409 -16.0631
rradius 123.944
rwrist -45.5184
rhand -5.7192 -22.3366
rfingers 7.12502
rthumb 20.1023 -51.3166
lclavicle 6.92019e-015 3.06128e-014
lhumerus -36.9807 17.0301 69.9217
lradius 23.635
lwrist -28.2095
lhand -9.6806 16.7893
lfingers 7.12502
lthumb 16.2912 46.125
rfemur -27.3124 2.44125 25.4239
rtibia 21.8362
rfoot -0.0388249 -7.63856
rtoes 17.623
lfemur 2.4742 -6.06361 -13.3134
ltibia 31.5642
lfoot -4.21134 -2.50737
ltoes -28.0117
165
root 9.78139 17.8964 3.87851 84.3368 -84.2004 -77.3478
lowerback -1.43845 -1.88557 2.79369
upperback -1.84378 -2.58074 3.51881
thorax -1.04585 -1.33245 2.03406
lowerneck -9.17888 -6.55344 -5.92341
upperneck 23.0016 -11.1808 9.69409
head 9.65607 -5.0157 3.01858
rclavicle -1.56543e-015 -3.53837e-014
rhumerus 42.7018 -37.9117 -15.2383
rradius 123.879
rwrist -45.5082
rhand -5.8345 -22.5131
rfingers 7.12502
rthumb 19.9914 -51.5048
lclavicle -1.56543e-015 -3.53837e-014
lhumerus -37.1704 17.0266 69.9586
lradius 23.8189
lwrist -28.0259
lhand -9.68999 16.7484
lfingers 7.12502
lthumb 16.2822 46.0848
rfemur -26.5863 2.48472 25.935
rtibia 21.7041
rfoot -0.257335 -7.42077
rtoes 18.6534
lfemur 1.656 -5.89118 -12.7081
ltibia 33.3353
lfoot -2.16894 -2.9228
ltoes -27.2692
